<svg width="32" height="32" viewBox="0 0 32 32" fill="none" xmlns="http://www.w3.org/2000/svg">
<path d="M12.5625 6.50438L11.7021 6.76358C10.936 6.99462 10.2518 7.43969 9.73011 8.04643C9.20841 8.65316 8.87089 9.3963 8.75728 10.1884C8.40088 12.67 9.19768 15.5716 11.1189 18.8992C13.0353 22.2184 15.1449 24.3568 17.4669 25.2928C18.2129 25.5935 19.0297 25.6736 19.82 25.5236C20.6102 25.3736 21.3408 24.9999 21.9249 24.4468L22.5753 23.83C22.9976 23.4303 23.2605 22.8908 23.315 22.3119C23.3695 21.7329 23.212 21.1539 22.8717 20.6824L21.2445 18.4264C21.0245 18.1218 20.7147 17.8937 20.3585 17.7741C20.0024 17.6544 19.6177 17.6492 19.2585 17.7592L16.7973 18.5116L16.7337 18.5236C16.4625 18.5632 15.8361 17.9764 15.0561 16.6252C14.2401 15.2116 14.0721 14.3848 14.2965 14.1712L15.5481 13.0036C16.0058 12.5769 16.3184 12.0177 16.4422 11.4044C16.5659 10.791 16.4945 10.1543 16.2381 9.58358L15.4437 7.81838C15.2048 7.28719 14.7809 6.86099 14.251 6.61924C13.7211 6.37748 13.1214 6.33666 12.5637 6.50438H12.5625ZM14.3505 8.31038L15.1425 10.0756C15.2967 10.4179 15.3399 10.7999 15.2658 11.1679C15.1918 11.536 15.0043 11.8716 14.7297 12.1276L13.4745 13.2964C12.6717 14.0572 12.9381 15.3556 14.0181 17.2252C15.0333 18.9844 15.9597 19.8532 16.9557 19.702L17.1045 19.6708L19.6101 18.9064C19.7298 18.8696 19.8581 18.8712 19.9769 18.911C20.0957 18.9508 20.1991 19.0268 20.2725 19.1284L21.8997 21.3844C22.0701 21.6201 22.149 21.9097 22.1219 22.1993C22.0947 22.4889 21.9633 22.7588 21.7521 22.9588L21.1005 23.5756C20.6833 23.9704 20.1615 24.2372 19.5972 24.3442C19.0328 24.4512 18.4496 24.3939 17.9169 24.1792C15.8793 23.3584 13.9533 21.406 12.1593 18.2992C10.3605 15.1852 9.63208 12.5368 9.94528 10.3588C10.0264 9.7929 10.2674 9.26196 10.6401 8.82848C11.0128 8.39499 11.5016 8.07702 12.0489 7.91198L12.9093 7.65278C13.1882 7.56896 13.4881 7.58946 13.7531 7.71045C14.018 7.83145 14.2299 8.04468 14.3493 8.31038H14.3505Z" fill="black"/>
</svg>
