<svg width="32" height="32" viewBox="0 0 32 32" fill="none" xmlns="http://www.w3.org/2000/svg">
<path d="M21.4869 9.97852C20.2469 7.87765 18.4866 6.13169 16.3756 4.90899L16 4.69177L15.6245 4.90899C13.4776 6.148 11.6949 7.93059 10.4557 10.0774C9.21658 12.2242 8.56469 14.6595 8.56567 17.1383C8.56567 17.2998 8.56849 17.4638 8.57397 17.6258C8.6486 19.8222 9.48855 21.6703 11.003 22.9704C12.162 23.9653 13.6486 24.5727 15.2502 24.7176V27.3082H16.7502V15.3082H15.25V23.208C12.7158 22.9144 10.1935 21.1241 10.073 17.5748C10.068 17.4297 10.0655 17.2829 10.0655 17.1383C10.07 14.998 10.6166 12.8936 11.6543 11.0217C12.6921 9.1498 14.1872 7.57129 16 6.43351C17.8129 7.57131 19.3079 9.14983 20.3457 11.0218C21.3834 12.8937 21.93 14.998 21.9344 17.1383C21.9344 17.2829 21.9319 17.4297 21.9269 17.5749C21.8306 20.4142 20.1969 22.1277 18.2499 22.85V24.4375C19.2602 24.1511 20.1972 23.6507 20.9971 22.9703C22.5115 21.6702 23.3515 19.8221 23.4261 17.6258C23.4316 17.4638 23.4344 17.2997 23.4344 17.1383C23.4358 14.6207 22.7633 12.1486 21.4869 9.97852Z" fill="black"/>
</svg>
