<svg width="24" height="24" viewBox="0 0 24 24" fill="none" xmlns="http://www.w3.org/2000/svg">
<path d="M21.945 2.76505C21.7294 2.58633 21.4694 2.46928 21.1927 2.42632C20.9159 2.38337 20.6327 2.4161 20.373 2.52105L2.45602 9.75405C2.16649 9.87303 1.92 10.0773 1.74926 10.3396C1.57852 10.602 1.49161 10.9101 1.50008 11.223C1.50854 11.5359 1.61197 11.8388 1.79664 12.0916C1.98131 12.3443 2.23848 12.5349 2.53402 12.6381L6.40002 13.9801L8.49502 20.9061C8.49902 20.9201 8.51202 20.9291 8.51802 20.9421C8.53961 20.9973 8.57113 21.0481 8.61102 21.0921C8.67164 21.1598 8.74989 21.2093 8.83702 21.2351C8.84702 21.2391 8.85402 21.2481 8.86402 21.2501H8.87002L8.87302 21.2511C8.95039 21.2677 9.03078 21.2636 9.10602 21.2391C9.11402 21.2371 9.12202 21.2371 9.13102 21.2341C9.20327 21.2087 9.26865 21.1669 9.32202 21.1121C9.32802 21.1051 9.33802 21.1041 9.34402 21.0981L12.357 17.7721L16.754 21.1771C17.021 21.3861 17.35 21.4991 17.689 21.4991C18.423 21.4991 19.056 20.9851 19.207 20.2681L22.469 4.25005C22.5244 3.97813 22.5048 3.69628 22.4126 3.43458C22.3203 3.17287 22.1587 2.94113 21.945 2.76405V2.76505ZM9.58802 15.2951L8.88102 18.7321L7.40602 13.8541L14.721 10.0441L9.72402 15.0421C9.65482 15.1112 9.60752 15.1992 9.58802 15.2951ZM18.227 20.0671C18.2082 20.1577 18.1665 20.2421 18.1057 20.3119C18.0449 20.3818 17.9672 20.4349 17.88 20.4661C17.7949 20.4988 17.7028 20.5088 17.6127 20.4951C17.5226 20.4815 17.4376 20.4446 17.366 20.3881L12.603 16.6991C12.5035 16.6222 12.3786 16.5857 12.2533 16.5968C12.128 16.6079 12.0115 16.6659 11.927 16.7591L9.83002 19.0701L10.536 15.6431L17.725 8.45305C17.8092 8.36859 17.8604 8.25681 17.8695 8.13789C17.8785 8.01898 17.8447 7.90075 17.7742 7.80455C17.7037 7.70836 17.6012 7.64052 17.4851 7.61329C17.3689 7.58606 17.2469 7.60123 17.141 7.65605L6.77802 13.0541L2.86102 11.6921C2.75717 11.6578 2.66659 11.5919 2.60188 11.5038C2.53718 11.4156 2.50158 11.3094 2.50002 11.2001C2.49504 11.0897 2.52452 10.9806 2.58437 10.8878C2.64422 10.7949 2.73147 10.723 2.83402 10.6821L20.748 3.44905C20.8398 3.41005 20.9407 3.39744 21.0393 3.41263C21.1378 3.42782 21.2302 3.47022 21.306 3.53505C21.3814 3.59604 21.4383 3.67678 21.4705 3.76825C21.5026 3.85972 21.5087 3.95833 21.488 4.05305L18.227 20.0681V20.0671Z" fill="#0F805D"/>
</svg>
