<svg width="24" height="19" viewBox="0 0 24 19" fill="none" xmlns="http://www.w3.org/2000/svg">
<path d="M1 4.92604C1 4.22189 1.43869 3.84221 2.31606 3.78698L5.69697 3.80769C5.92388 3.80769 6.07515 3.91124 6.15078 4.11834C6.49871 5.15385 6.88823 6.04783 7.31935 6.8003C7.75048 7.55276 8.31396 8.41913 9.00981 9.39941C9.07032 9.52367 9.16864 9.5858 9.30479 9.5858C9.41068 9.5858 9.49388 9.53748 9.55438 9.44083L9.62246 9.21302L9.64515 5.63018C9.64515 5.38166 9.58086 5.21598 9.45228 5.13314C9.3237 5.0503 9.08544 4.98817 8.73752 4.94675C8.46523 4.90533 8.32909 4.75345 8.32909 4.49112C8.32909 4.4359 8.33665 4.39448 8.35178 4.36686C8.66945 3.46943 9.57708 3.02071 11.0747 3.02071L12.3453 3C12.9202 3 13.3967 3.13116 13.7748 3.39349C14.153 3.65582 14.3421 4.07002 14.3421 4.63609V9.33728C14.448 9.40631 14.5463 9.44083 14.6371 9.44083C14.864 9.44083 15.0607 9.31657 15.2271 9.06805C16.891 6.94181 17.7911 5.51972 17.9272 4.80177C17.9272 4.78797 17.9424 4.75345 17.9726 4.69822C18.0785 4.49112 18.2525 4.31164 18.4945 4.15976C18.7365 4.00789 18.9483 3.90434 19.1298 3.84911C19.1904 3.8215 19.2584 3.80769 19.3341 3.80769H22.8511L23.078 3.8284C23.3806 3.8284 23.615 3.95957 23.7814 4.22189C23.8419 4.30473 23.8835 4.39448 23.9062 4.49112C23.9289 4.58777 23.9441 4.68442 23.9516 4.78106C23.9592 4.87771 23.963 4.93294 23.963 4.94675V5.09172C23.8571 5.65779 23.5886 6.26183 23.1574 6.90385C22.7263 7.54586 22.178 8.23965 21.5124 8.98521C20.8468 9.73077 20.4308 10.2209 20.2644 10.4556C20.1282 10.6213 20.0602 10.7732 20.0602 10.9112C20.0602 11.0217 20.1207 11.146 20.2417 11.284L23.5545 15.0947C23.7361 15.3156 23.8268 15.5572 23.8268 15.8195C23.8268 16.1371 23.6907 16.3994 23.4184 16.6065C23.1461 16.8136 22.8209 16.931 22.4427 16.9586L22.0569 16.9793H18.608C18.5928 16.9793 18.5626 16.9827 18.5172 16.9896C18.4718 16.9965 18.4416 17 18.4264 17C18.0936 17 17.7835 16.8688 17.4961 16.6065C17.3902 16.4961 16.6793 15.6815 15.3632 14.1627C15.2876 14.0661 15.1817 13.9763 15.0455 13.8935C14.985 14.1144 14.9056 14.432 14.8073 14.8462C14.7089 15.2604 14.6371 15.5572 14.5917 15.7367L14.5236 16.0888C14.3724 16.572 14.0547 16.8619 13.5706 16.9586L13.253 16.9793H11.0293C9.77373 16.9793 8.52196 16.4546 7.27397 15.4053C6.02598 14.356 4.9028 12.9995 3.90441 11.3358C2.90602 9.67209 1.9757 7.7357 1.11345 5.52663C1.03782 5.34714 1 5.14694 1 4.92604ZM14.6371 10.2899C14.3194 10.2899 14.032 10.2106 13.7748 10.0518C13.5177 9.893 13.3891 9.67554 13.3891 9.39941V4.63609C13.3891 4.35996 13.3135 4.16321 13.1622 4.04586C13.0109 3.9285 12.7462 3.86982 12.368 3.86982L11.0747 3.91124C10.4242 3.91124 9.93256 4.01479 9.59977 4.22189C10.2654 4.51183 10.5982 4.98126 10.5982 5.63018V9.27515C10.5679 9.62032 10.4166 9.9068 10.1443 10.1346C9.87205 10.3624 9.56951 10.4763 9.23671 10.4763C8.7829 10.4763 8.43498 10.2761 8.19294 9.87574C7.01303 8.24655 6.13566 6.7002 5.56083 5.23669L5.35661 4.69822L2.33875 4.67751C2.1421 4.67751 2.03243 4.68787 2.00973 4.70858C1.98704 4.72929 1.9757 4.78797 1.9757 4.88462C1.9757 5.00888 1.99083 5.14004 2.02108 5.27811L2.49758 6.43787C3.76826 9.43392 5.14861 11.7949 6.63863 13.5207C8.12865 15.2465 9.5922 16.1095 11.0293 16.1095H13.2983C13.3891 16.1095 13.4572 16.0853 13.5026 16.037C13.5479 15.9887 13.5858 15.8955 13.616 15.7574L13.6614 15.5503L14.0925 13.7278C14.2135 13.4793 14.3194 13.3136 14.4102 13.2308C14.5766 13.0789 14.7732 13.003 15.0001 13.003C15.3632 13.003 15.7338 13.2032 16.112 13.6035L18.0407 15.8402C18.1617 16.0197 18.2903 16.1095 18.4264 16.1095H22.1704C22.6242 16.1095 22.8511 16.0059 22.8511 15.7988C22.8511 15.7298 22.8284 15.6607 22.783 15.5917L19.4929 11.8432C19.2357 11.5533 19.1072 11.2426 19.1072 10.9112C19.1072 10.5799 19.2282 10.2623 19.4702 9.95858C19.6669 9.68245 20.0488 9.22337 20.6161 8.58136C21.1834 7.93935 21.6788 7.33876 22.1023 6.77959C22.5259 6.22041 22.8057 5.71302 22.9419 5.2574L23.01 4.98817C22.9948 4.96055 22.9873 4.91568 22.9873 4.85355C22.9873 4.79142 22.9797 4.73964 22.9646 4.69822H19.4021C19.1752 4.78106 18.9937 4.90533 18.8576 5.07101L18.7214 5.4645C18.3432 6.41716 17.3524 7.88757 15.7489 9.87574C15.4313 10.1519 15.0607 10.2899 14.6371 10.2899Z" fill="#0F805D"/>
</svg>
