<svg width="24" height="24" viewBox="0 0 24 24" fill="none" xmlns="http://www.w3.org/2000/svg">
<path d="M15.2062 11.6907L10.7062 8.69074C10.6499 8.65318 10.5843 8.6316 10.5167 8.6283C10.449 8.625 10.3817 8.64009 10.3219 8.67199C10.262 8.70316 10.2118 8.75032 10.1771 8.80824C10.1423 8.86616 10.1243 8.93257 10.125 9.00011V15.0001C10.1243 15.0677 10.1423 15.1341 10.1771 15.192C10.2118 15.2499 10.262 15.2971 10.3219 15.3282C10.3771 15.3568 10.4379 15.3728 10.5 15.3751C10.5741 15.3765 10.6466 15.3534 10.7062 15.3095L15.2062 12.3095C15.2585 12.2766 15.3016 12.2309 15.3315 12.1768C15.3614 12.1227 15.377 12.0619 15.377 12.0001C15.377 11.9383 15.3614 11.8775 15.3315 11.8234C15.3016 11.7693 15.2585 11.7237 15.2062 11.6907ZM10.875 14.297V9.70324L14.325 12.0001L10.875 14.297ZM21.6094 6.63761C21.5319 6.35177 21.3891 6.08782 21.1923 5.86657C20.9954 5.64531 20.7499 5.4728 20.475 5.36261C17.3062 4.14386 12.2156 4.16261 12 4.16261C11.7844 4.16261 6.69375 4.14386 3.525 5.36261C3.25011 5.4728 3.00457 5.64531 2.80771 5.86657C2.61086 6.08782 2.46808 6.35177 2.39062 6.63761C2.15625 7.54699 1.875 9.21574 1.875 12.0001C1.875 14.7845 2.15625 16.4532 2.39062 17.3626C2.46808 17.6485 2.61086 17.9124 2.80771 18.1337C3.00457 18.3549 3.25011 18.5274 3.525 18.6376C6.69375 19.8564 11.7844 19.8376 12 19.8376H12.0656C12.7125 19.8376 17.4656 19.8001 20.475 18.6376C20.7499 18.5274 20.9954 18.3549 21.1923 18.1337C21.3891 17.9124 21.5319 17.6485 21.6094 17.3626C21.8438 16.4532 22.125 14.7845 22.125 12.0001C22.125 9.21574 21.8438 7.54699 21.6094 6.63761ZM20.8781 17.1751C20.8331 17.3458 20.7485 17.5034 20.6312 17.6353C20.514 17.7673 20.3673 17.8697 20.2031 17.9345C17.1656 19.1064 12.0562 19.0876 12 19.0876C11.9438 19.0876 6.83438 19.1064 3.79688 17.9345C3.63268 17.8697 3.48603 17.7673 3.36877 17.6353C3.25151 17.5034 3.16693 17.3458 3.12187 17.1751C2.89687 16.3032 2.625 14.7001 2.625 12.0001C2.625 9.30011 2.89687 7.69699 3.12187 6.82511C3.16693 6.65446 3.25151 6.4968 3.36877 6.36489C3.48603 6.23297 3.63268 6.13049 3.79688 6.06574C6.83438 4.89386 11.9438 4.91261 12 4.91261C12.0562 4.91261 17.1656 4.89386 20.2031 6.06574C20.3673 6.13049 20.514 6.23297 20.6312 6.36489C20.7485 6.4968 20.8331 6.65446 20.8781 6.82511C21.1031 7.69699 21.375 9.30011 21.375 12.0001C21.375 14.7001 21.1031 16.3032 20.8781 17.1751Z" fill="#0F805D"/>
</svg>
